<mxfile host="app.diagrams.net" agent="Mozilla/5.0 (X11; Linux x86_64; rv:136.0) Gecko/20100101 Firefox/136.0" version="26.2.12">
  <diagram name="Seite-1" id="4sdjlLzygc979qHXJ2A0">
    <mxGraphModel dx="1190" dy="653" grid="1" gridSize="10" guides="1" tooltips="1" connect="1" arrows="1" fold="1" page="1" pageScale="1" pageWidth="1169" pageHeight="827" math="0" shadow="0">
      <root>
        <mxCell id="0" />
        <mxCell id="1" parent="0" />
        <mxCell id="849fYaTX_eS8fPJYgH0S-1" value="Player 1" style="shape=umlActor;verticalLabelPosition=bottom;verticalAlign=top;html=1;outlineConnect=0;strokeColor=#3333FF;" vertex="1" parent="1">
          <mxGeometry x="190" y="160" width="30" height="60" as="geometry" />
        </mxCell>
        <mxCell id="849fYaTX_eS8fPJYgH0S-4" value="" style="shape=image;html=1;verticalAlign=top;verticalLabelPosition=bottom;labelBackgroundColor=#ffffff;imageAspect=0;aspect=fixed;image=https://cdn2.iconfinder.com/data/icons/boxicons-regular-vol-3/24/bx-qr-scan-128.png" vertex="1" parent="1">
          <mxGeometry x="185" y="100" width="40" height="40" as="geometry" />
        </mxCell>
        <mxCell id="849fYaTX_eS8fPJYgH0S-6" value="Player 2" style="shape=umlActor;verticalLabelPosition=bottom;verticalAlign=top;html=1;outlineConnect=0;strokeColor=#CC0000;" vertex="1" parent="1">
          <mxGeometry x="459.5" y="160" width="30" height="60" as="geometry" />
        </mxCell>
        <mxCell id="849fYaTX_eS8fPJYgH0S-8" value="" style="shape=image;html=1;verticalAlign=top;verticalLabelPosition=bottom;labelBackgroundColor=#ffffff;imageAspect=0;aspect=fixed;image=https://cdn2.iconfinder.com/data/icons/boxicons-regular-vol-3/24/bx-qr-128.png" vertex="1" parent="1">
          <mxGeometry x="454.5" y="100" width="40" height="40" as="geometry" />
        </mxCell>
        <mxCell id="849fYaTX_eS8fPJYgH0S-12" value="&lt;span style=&quot;color: rgb(51, 51, 255);&quot;&gt;Team Blue&lt;/span&gt;" style="text;html=1;align=center;verticalAlign=middle;whiteSpace=wrap;rounded=0;" vertex="1" parent="1">
          <mxGeometry x="40" y="380" width="60" height="30" as="geometry" />
        </mxCell>
        <mxCell id="849fYaTX_eS8fPJYgH0S-13" value="&lt;span style=&quot;color: rgb(204, 0, 0);&quot;&gt;Team Red&lt;/span&gt;" style="text;html=1;align=center;verticalAlign=middle;whiteSpace=wrap;rounded=0;" vertex="1" parent="1">
          <mxGeometry x="555" y="380" width="60" height="30" as="geometry" />
        </mxCell>
        <mxCell id="849fYaTX_eS8fPJYgH0S-16" value="" style="html=1;verticalLabelPosition=bottom;align=center;labelBackgroundColor=#ffffff;verticalAlign=top;strokeWidth=2;strokeColor=#3333FF;shadow=0;dashed=0;shape=mxgraph.ios7.icons.flag;" vertex="1" parent="1">
          <mxGeometry x="60" y="330" width="30" height="50" as="geometry" />
        </mxCell>
        <mxCell id="849fYaTX_eS8fPJYgH0S-17" value="" style="html=1;verticalLabelPosition=bottom;align=center;labelBackgroundColor=#ffffff;verticalAlign=top;strokeWidth=2;strokeColor=#CC0000;shadow=0;dashed=0;shape=mxgraph.ios7.icons.flag;" vertex="1" parent="1">
          <mxGeometry x="585" y="330" width="30" height="50" as="geometry" />
        </mxCell>
        <mxCell id="849fYaTX_eS8fPJYgH0S-18" value="HQ" style="whiteSpace=wrap;html=1;aspect=fixed;strokeColor=#3333FF;" vertex="1" parent="1">
          <mxGeometry x="30" y="430" width="80" height="80" as="geometry" />
        </mxCell>
        <mxCell id="849fYaTX_eS8fPJYgH0S-19" value="HQ" style="whiteSpace=wrap;html=1;aspect=fixed;strokeColor=#CC0000;" vertex="1" parent="1">
          <mxGeometry x="545" y="430" width="80" height="80" as="geometry" />
        </mxCell>
        <mxCell id="849fYaTX_eS8fPJYgH0S-20" value="Jail" style="whiteSpace=wrap;html=1;aspect=fixed;strokeColor=#3333FF;" vertex="1" parent="1">
          <mxGeometry x="30" y="540" width="80" height="80" as="geometry" />
        </mxCell>
        <mxCell id="849fYaTX_eS8fPJYgH0S-21" value="Jail" style="whiteSpace=wrap;html=1;aspect=fixed;strokeColor=#CC0000;" vertex="1" parent="1">
          <mxGeometry x="545" y="530" width="80" height="80" as="geometry" />
        </mxCell>
      </root>
    </mxGraphModel>
  </diagram>
</mxfile>
